{"title":"Around.Five.The.Making.Of.2005.DVDRip.XviD-EXViD","uid":5398440,"size":744955025,"categoryP":"video","categoryS":"movies","magnet":"?xt=urn:btih:5524e52d6edc891b7fe5c7f376938c84370a68ed&amp;dn=Around.Five.The.Making.Of.2005.DVDRip.XviD-EXViD&amp;tr=udp%3A%2F%2Ftracker.openbittorrent.com%3A80&amp;tr=udp%3A%2F%2Fopen.demonii.com%3A1337&amp;tr=udp%3A%2F%2Ftracker.coppersurfer.tk%3A6969&amp;tr=udp%3A%2F%2Fexodus.desync.com%3A6969","seeders":0,"leechers":1,"uploader":"TvTeam","files":54,"time":1267322838,"description":" &lt;a href=&quot;http://www.torrentday.com&quot; rel=&quot;nofollow&quot; target=&quot;_NEW&quot;&gt;http://www.torrentday.com&lt;/a&gt; - Your Key To The Scene.\n\n &lt;a href=&quot;\nhttp://www.torrentday.com&quot; rel=&quot;nofollow&quot; target=&quot;_NEW&quot;&gt;\nhttp://www.torrentday.com&lt;/a&gt; :  Clean RAR Scene Releases!\n\n\nEnjoy =)\n\n...................................NFO:....................................\n\n.EEEEEEEEEEEEEEEEEEEEEEXXXXXXX       XXXXXXXVVVVVVVV           VVVVVVVV iiii  DDDDDDDDDDDDD        \nE::::::::::::::::::::EX:::::X       X:::::XV::::::V           V::::::Vi::::i D::::::::::::DDD     \nE::::::::::::::::::::EX:::::X       X:::::XV::::::V           V::::::V iiii  D:::::::::::::::DD   \nEE::::::EEEEEEEEE::::EX::::::X     X::::::XV::::::V           V::::::V       DDD:::::DDDDD:::::D  \n  E:::::E       EEEEEEXXX:::::X   X:::::XXX V:::::V           V:::::Viiiiiii   D:::::D    D:::::D \n  E:::::E                X:::::X X:::::X     V:::::V         V:::::V i:::::i   D:::::D     D:::::D\n  E::::::EEEEEEEEEE       X:::::X:::::X       V:::::V       V:::::V   i::::i   D:::::D     D:::::D\n  E:::::::::::::::E        X:::::::::X         V:::::V     V:::::V    i::::i   D:::::D     D:::::D\n  E:::::::::::::::E        X:::::::::X          V:::::V   V:::::V     i::::i   D:::::D     D:::::D\n  E::::::EEEEEEEEEE       X:::::X:::::X          V:::::V V:::::V      i::::i   D:::::D     D:::::D\n  E:::::E                X:::::X X:::::X          V:::::V:::::V       i::::i   D:::::D     D:::::D\n  E:::::E       EEEEEEXXX:::::X   X:::::XXX        V:::::::::V        i::::i   D:::::D    D:::::D \nEE::::::EEEEEEEE:::::EX::::::X     X::::::X         V:::::::V        i::::::iDDD:::::DDDDD:::::D  \nE::::::::::::::::::::EX:::::X       X:::::X          V:::::V         i::::::iD:::::::::::::::DD   \nE::::::::::::::::::::EX:::::X       X:::::X           V:::V          i::::::iD::::::::::::DDD     \nEEEEEEEEEEEEEEEEEEEEEEXXXXXXX       XXXXXXX            VVV           iiiiiiiiDDDDDDDDDDDDD        \n\nEXViD aims to iNTERNAL those releases which have been lost in the archives.\nEXViD aims to PRE non-internal releases which have poor sources and are likely skipped by others.\n\nAround.Five.The.Making.Of.2005.DVDRip.XviD-EXViD &lt;a href=&quot;\nhttp://www.imdb.com/title/tt0409965/&quot; rel=&quot;nofollow&quot; target=&quot;_NEW&quot;&gt;\nhttp://www.imdb.com/title/tt0409965/&lt;/a&gt;\nSubtitles: English French\nDate: 2010.02\n\nDirector: Abbas Kiarostami\nGenre: Documentary  \nPlot: The making of Five: Dedicated to Ozu (2005)\n\nStats:\nFormat                           : AVI\nFormat/Info                      : Audio Video Interleave\nFile size                        : 696 MiB\nDuration                         : 51mn 12s\nOverall bit rate                 : 1 901 Kbps\nWriting application              : VirtualDubMod 1.5.10.2 (build 2542/release)\nWriting library                  : VirtualDubMod build 2542/release\n\nVideo\nID                               : 0\nFormat                           : MPEG-4 Visual\nFormat profile                   : AdvancedSimple@L5\nFormat settings, BVOP            : Yes\nFormat settings, QPel            : No\nFormat settings, GMC             : No warppoints\nFormat settings, Matrix          : Default (H.263)\nCodec ID                         : XVID\nCodec ID/Hint                    : XviD\nDuration                         : 51mn 12s\nBit rate                         : 1 697 Kbps\nWidth                            : 640 pixels\nHeight                           : 464 pixels\nDisplay aspect ratio             : 1.379\nFrame rate                       : 29.970 fps\nResolution                       : 24 bits\nColorimetry                      : 4:2:0\nScan type                        : Progressive\nBits/(Pixel*Frame)               : 0.191\nStream size                      : 622 MiB (89%)\nWriting library                  : XviD 1.1.2 (UTC 2006-11-01)\n\nAudio\nID                               : 1\nFormat                           : AC-3\nFormat/Info                      : Audio Coding 3\nCodec ID                         : 2000\nDuration                         : 51mn 11s\nBit rate mode                    : Constant\nBit rate                         : 192 Kbps\nChannel(s)                       : 2 channels\nChannel positions                : L R\nSampling rate                    : 48.0 KHz\nStream size                      : 70.3 MiB (10%)\nAlignment                        : Split accross interleaves\nInterleave, duration             : 33 ms (1.00 video frame)\nInterleave, preload duration     : 500 ms\n\n\nRelease notes:\nenjoy!\n\nLooking for:\n75TB+ Archives\n\nGreets:\nCRBS EPiSODE FiCO FLS iLS KLASSiGER LiPSYNC MADE NODLABS RUNNER TNAN","torrent":{"xt":"urn:btih:5524e52d6edc891b7fe5c7f376938c84370a68ed","amp;dn":"Around.Five.The.Making.Of.2005.DVDRip.XviD-EXViD","amp;tr":["udp%3A%2F%2Ftracker.openbittorrent.com%3A80","udp%3A%2F%2Fopen.demonii.com%3A1337","udp%3A%2F%2Ftracker.coppersurfer.tk%3A6969","udp%3A%2F%2Fexodus.desync.com%3A6969"],"infoHash":"5524e52d6edc891b7fe5c7f376938c84370a68ed","infoHashBuffer":{"type":"Buffer","data":[85,36,229,45,110,220,137,27,127,229,199,243,118,147,140,132,55,10,104,237]},"announce":[],"urlList":[]}}